<svg xmlns="http://www.w3.org/2000/svg" width="255.054" height="150" viewBox="0 0 255.054 150">
  <g id="Higher_Returns" data-name="Higher Returns" transform="translate(-9575 -5339.874)">
    <ellipse id="Ellipse_121" data-name="Ellipse 121" cx="127.527" cy="4.048" rx="127.527" ry="4.048" transform="translate(9575 5481.726)" fill="#d1d1d1" opacity="0.3"/>
    <g id="Group_3006" data-name="Group 3006" transform="translate(9583.841 5339.874)">
      <path id="Path_897" data-name="Path 897" d="M1039.676,535.941a7.717,7.717,0,0,0,1.02-3.911c0-3.534-2.183-6.4-4.89-6.4s-4.887,2.866-4.887,6.4a7.716,7.716,0,0,0,1.02,3.911,8.009,8.009,0,0,0,0,7.822,8,8,0,0,0,0,7.819,8.01,8.01,0,0,0,0,7.822,7.715,7.715,0,0,0-1.02,3.911c0,3.534,2.183,6.4,4.887,6.4s4.89-2.866,4.89-6.4a7.716,7.716,0,0,0-1.02-3.911,8.008,8.008,0,0,0,0-7.822,8,8,0,0,0,0-7.819A8.007,8.007,0,0,0,1039.676,535.941Z" transform="translate(-1012.484 -424.952)" fill="#edf3ff"/>
      <path id="Path_898" data-name="Path 898" d="M976.821,240.721A23.531,23.531,0,0,1,975,238.043l12.846-2.108-13.894.1a23.459,23.459,0,0,1-.446-18.553l18.637,9.668-17.187-12.634a23.415,23.415,0,1,1,38.672,26.2,23.1,23.1,0,0,1,2.67,4.273l-16.672,8.667,17.776-5.966a23.427,23.427,0,0,1-3.777,21.987,23.415,23.415,0,1,1-36.8,0,23.416,23.416,0,0,1,0-28.954Z" transform="translate(-971.809 -202.811)" fill="#edf3ff"/>
      <path id="Path_899" data-name="Path 899" d="M1018.676,370.03a23.313,23.313,0,0,1-5.012,14.477,23.415,23.415,0,1,1-36.8,0C973.711,380.524,1018.676,367.4,1018.676,370.03Z" transform="translate(-971.836 -317.642)" fill="#dee8fd"/>
    </g>
    <circle id="Ellipse_120" data-name="Ellipse 120" cx="64.917" cy="64.917" r="64.917" transform="translate(9638.359 5339.874)" fill="#e7eefd"/>
    <path id="Path_767" data-name="Path 767" d="M855.03,435.882c-.935,1.129-.664,1.773-1.78,2.416s4.964,12.3,3.815,15.275.89,2.781,0,3.417,2.035-1.144,2.035-1.144.509,3.052,3.179,2.289,10.173-15.259,6.358-17.293S855.966,434.754,855.03,435.882Z" transform="translate(8909.336 4974.74)" fill="#2f2e41"/>
    <path id="Path_768" data-name="Path 768" d="M872.842,491.187s1.319,4.617-.989,4.946a9.011,9.011,0,0,0-3.957,1.649l4.287,5.606H880.1l4.946-4.946s-6.6-4.946-5.276-7.914S872.842,491.187,872.842,491.187Z" transform="translate(8896.133 4931.713)" fill="#ffd05b"/>
    <path id="Path_769" data-name="Path 769" d="M872.842,491.187s1.319,4.617-.989,4.946a9.011,9.011,0,0,0-3.957,1.649l4.287,5.606H880.1l4.946-4.946s-6.6-4.946-5.276-7.914S872.842,491.187,872.842,491.187Z" transform="translate(8896.133 4931.713)" opacity="0.1"/>
    <path id="Path_770" data-name="Path 770" d="M852.787,720.771l7.584,2.638,5.276.33-.33-4.616L854.436,715.9Z" transform="translate(8918.167 4759.505)" fill="#ffd05b"/>
    <path id="Path_771" data-name="Path 771" d="M953,768.875s0,4.617.66,4.617,9.563-.989,12.2,0,6.595-2.638,4.616-4.617-5.206-4.946-7.219-4.287S953,766.9,953,766.9Z" transform="translate(8827.678 4710.412)" fill="#d1d1d1"/>
    <path id="Path_772" data-name="Path 772" d="M819.984,764.974s-3.957,7.914-1.319,8.574a9.148,9.148,0,0,0,5.935-.66c.33-.33,4.946-1.649,5.606-.989s.659-2.638.659-2.638Z" transform="translate(8936.461 4710.026)" fill="#d1d1d1"/>
    <path id="Path_773" data-name="Path 773" d="M832.233,709.359s-6.265,8.573-1.649,10.882,26.71,2.308,28.359,0,2.308-9.563,0-10.222S832.233,709.359,832.233,709.359Z" transform="translate(8927.828 4754.76)" fill="#3c60ad"/>
    <path id="Path_774" data-name="Path 774" d="M832.233,709.359s-6.265,8.573-1.649,10.882,26.71,2.308,28.359,0,2.308-9.563,0-10.222S832.233,709.359,832.233,709.359Z" transform="translate(8927.828 4754.76)" fill="#262626" opacity="0.2"/>
    <path id="Path_4732" data-name="Path 4732" d="M7.863,0C12.052,0,12.1,4.356,12.1,8.545s-2.444,6.829-4.917,6.741S3.19,11.61,1.542,7.211,3.674,0,7.863,0Z" transform="translate(9763.75 5410.039)" fill="#ffd05b"/>
    <path id="Path_775" data-name="Path 775" d="M845.987,526.981l6.6-1.319s1.649,5.276,6.925,4.287,6.6-4.287,6.6-4.287,3.957,1.649,4.287,1.649S875,528.959,875,529.948s-4.946,10.882-4.946,10.882l.66,17.806-24.4-.659,1.649-17.477Z" transform="translate(8913.756 4902.514)" fill="#e09225"/>
    <path id="Path_776" data-name="Path 776" d="M822.874,576.22s-1.979,17.477-.659,18.8,6.595,4.946,6.595,4.946v-3.957l-2.638-4.946,2.638-11.541Z" transform="translate(8933.241 4861.848)" fill="#ffd05b"/>
    <path id="Path_777" data-name="Path 777" d="M974.088,573.693s-1.154,17.971-1.154,18.631-2.968,2.968-3.957,2.968-1.649-1.649-1.649-1.649L969.636,591l-1.649-13.52,4.093-2.544Z" transform="translate(8816.156 4863.881)" fill="#ffd05b"/>
    <path id="Path_778" data-name="Path 778" d="M922.836,687.556s14.839-8.244,15.168,0S930.42,699.1,930.42,699.1s-20.445,6.13-21.269,3.89-2.473-5.868-1.154-6.2,2.968-.989,3.627-.33,8.9-4.946,8.9-4.946Z" transform="translate(8864.276 4775.244)" fill="#3c60ad"/>
    <path id="Path_779" data-name="Path 779" d="M983.3,697.562a18.757,18.757,0,0,0-3.957,2.308c-.989.989-5.276,2.638-5.276,2.638" transform="translate(8810.733 4764.248)" fill="none" stroke="#000" stroke-miterlimit="10" stroke-width="2" opacity="0.2"/>
    <path id="Path_780" data-name="Path 780" d="M825.768,533.062l-1.979-.66s-7.254,7.584-4.946,9.563,3.627,2.638,4.287,3.3,3.957.989,3.957.989Z" transform="translate(8935.953 4897.092)" fill="#e09225"/>
    <path id="Path_781" data-name="Path 781" d="M960.148,544.2l2.968.66a48.388,48.388,0,0,0,2.968,5.606c.659.659-.989.33-1.979,1.649s-1.979,3.627-3.957,3.627-4.617-3.3-4.617-3.3Z" transform="translate(8825.645 4887.603)" fill="#e09225"/>
    <path id="Path_782" data-name="Path 782" d="M778.023,698.3s-12.53-8.9-16.817-2.308,18.466,15.5,21.763,16.817,6.265,2.638,6.265,2.638,2.968-7.254,2.968-8.573-2.308-1.319-2.968-1.319-3.627-.659-4.287-1.649S778.023,698.3,778.023,698.3Z" transform="translate(8982.38 4767.471)" fill="#3c60ad"/>
    <path id="Path_783" data-name="Path 783" d="M813.966,705.988a19.084,19.084,0,0,0,6.265,3.3,6.129,6.129,0,0,1,3.957,2.308" transform="translate(8939.511 4757.47)" fill="none" stroke="#000" stroke-miterlimit="10" stroke-width="2" opacity="0.2"/>
    <path id="Path_784" data-name="Path 784" d="M837.731,635.3l.263,13.962a1.748,1.748,0,0,0,1.767,1.715l25.982-.292a1.748,1.748,0,0,0,1.725-1.647l.789-13.67a1.748,1.748,0,0,0-1.745-1.848H839.478a1.748,1.748,0,0,0-1.748,1.781Z" transform="translate(8920.396 4815.76)" fill="#d1d1d1"/>
    <path id="Path_785" data-name="Path 785" d="M892.442,423.863a10.894,10.894,0,0,1-2.729,2.053c-2.11,1.268-2.731,6.057-.248,7.466s2.838,3.239,2.637,5.441-.005,7.68,1.335,7.8,1.086-.317,2.359,0,.124,2.113,2.731,1.268.081-9.668-1.454-15.871S892.442,423.863,892.442,423.863Z" transform="translate(8882.005 4984.857)" fill="#2f2e41"/>
    <path id="Path_787" data-name="Path 787" d="M872.086,415.2c-6.375-.621-7.554,4.2-7.554,4.2.057,3.6,5.767,3.883,7.354,4.419,1.914-1.377,4.064-1.178,6.7-3.037C876.672,419.432,878.461,415.822,872.086,415.2Z" transform="translate(8898.84 4992.514)" fill="#2f2e41"/>
    <path id="Path_788" data-name="Path 788" d="M677.932,369.81s-7.406-34.71-53.763-59.89" transform="translate(9092.172 5076.043)" fill="none" stroke="#1458ea" stroke-miterlimit="10" stroke-width="1"/>
    <path id="Path_789" data-name="Path 789" d="M574.044,254.891l.093.381-1.875.455.591,1.837-.373.12-.719-2.238Z" transform="translate(9144.207 5130.315)" fill="#1458ea"/>
    <path id="Path_792" data-name="Path 792" d="M214.675,787.637l1.249-.928s.827,4.617-.1,5.309-4.381,1.845-4.381,3.228-7.84,3.228-8.07,1.153a4.573,4.573,0,0,1,.692-3.228s3.689-3.689,4.15-4.381,1.614-2.075,1.614-2.075Z" transform="translate(9430.661 4692.543)" fill="#d1d1d1"/>
    <path id="Path_793" data-name="Path 793" d="M167,487.587s.035.2.095.574c.055.33.131.8.224,1.37.968,5.91,3.793,23.307,3.6,23.881-.231.692-1.845,3.228,0,3.92a1.43,1.43,0,0,1,.574.625,13.4,13.4,0,0,1,.975,2.3,101.113,101.113,0,0,1,2.956,11.836c.3,1.554.5,2.8.56,3.459a1.879,1.879,0,0,1,.007.457c-.231.922,1.383,4.151,2.075,5.073s1.845,1.845,1.614,2.767,5.764,3.459,6.456,1.845a29.444,29.444,0,0,0,.922-3c.231-.461.461-3.689-.692-4.15s-.461-8.531-1.614-10.146a22.156,22.156,0,0,1-1.589-4.545c-.242-.858-.486-1.771-.726-2.686-.973-3.751-1.835-7.526-1.835-7.526l.231-26.978-12.682-1.614-.325.717-.648,1.423Z" transform="translate(9459.895 4935.18)" fill="#c4495e"/>
    <path id="Path_794" data-name="Path 794" d="M127.962,720.908s-1.845-1.845-2.767,0-1.845,8.993-3.459,10.607-3.689,9.684-1.383,10.146,4.842-.692,5.073-2.075,5.073-8.531,5.073-9.223-3.228-3.228-3.228-3.228Z" transform="translate(9498.236 4746.13)" fill="#d1d1d1"/>
    <path id="Path_795" data-name="Path 795" d="M184.929,430.595s-3,26.978-3.689,29.514-4.381,12.221-5.534,13.835-8.531,14.757-9.454,15.449-2.767,2.536-2.767,2.536-3.459,3.459-3.92,4.15-4.381-1.383-4.612-2.767a14.217,14.217,0,0,1,.461-4.612c.231-.922-.461-2.306.231-3s4.15-4.15,4.15-5.764,6-11.068,8.3-13.143,1.845-5.534,1.845-5.534V447.2l-12.682-3.92s.692-11.068,2.306-11.068S182.392,428.52,184.929,430.595Z" transform="translate(9469.631 4979.489)" fill="#c4495e"/>
    <path id="Path_796" data-name="Path 796" d="M184.213,212.007s.922,3.459,2.075,4.381-3,4.842-3,4.842l-7.84.461-1.383-4.381s2.536-5.073,1.845-8.3S184.213,212.007,184.213,212.007Z" transform="translate(9454.206 5157.957)" fill="#ffd05b"/>
    <path id="Path_4730" data-name="Path 4730" d="M184.213,212.007s.922,3.459,2.075,4.381-3,4.842-3,4.842l-7.84.461-1.383-4.381s2.536-5.073,1.845-8.3S184.213,212.007,184.213,212.007Z" transform="translate(9454.206 5157.957)" fill="#262626" opacity="0.1"/>
    <path id="Path_797" data-name="Path 797" d="M181.754,248.18s-2.075.231-2.536.922-3.689,2.767-6.226,2.306-4.15-1.153-4.612-.922S167,255.558,167,255.558l2.536,7.379-.461,20.291-.692,5.534s-1.383-1.845,4.15-.692,12.682-.922,14.988-1.153,6.226-.922,6.456-2.306-.692-6.456-.692-6.456l-3.689-15.449-2.306-8.3Z" transform="translate(9459.895 5125.703)" fill="#fff"/>
    <path id="Path_798" data-name="Path 798" d="M231.271,240.826s1.95-1.035,2.642-.112,9.454,2.306,9.454,3,1.845,19.369,1.383,20.983.922,3.459.922,3.459l1.614,6.917s4.381,13.143,2.536,13.6a12.006,12.006,0,0,1-4.15,0c-.692,0-.461-8.762-2.306-11.068s-4.381-8.07-4.842-9.223-6.226-17.063-6-18.908S231.271,240.826,231.271,240.826Z" transform="translate(9408.195 5132.016)" fill="#8a8a8f"/>
    <path id="Path_799" data-name="Path 799" d="M142.505,248.18s-1.845,0-2.075.461a25.236,25.236,0,0,1-3.459,4.15c-.922.692-4.15,3.689-4.15,4.381s6.687,5.764,6.687,5.764,2.767,13.6,1.383,18.216-3.459,15.679-2.536,16.371,3,.922,3,0,1.383-10.837,2.536-12.913,4.612-15.218,3.228-18.908S142.505,248.18,142.505,248.18Z" transform="translate(9487.382 5125.703)" fill="#8a8a8f"/>
    <path id="Path_800" data-name="Path 800" d="M270.574,364.847s.231,7.148-2.306,10.837a43.82,43.82,0,0,0-4.15,7.84s-4.15-1.153-4.842-2.536-5.073-.231-5.073-.692,5.3-2.767,5.765-3.228,2.075-.461,3-1.383a6.1,6.1,0,0,0,1.153-3l.922-6Z" transform="translate(9389.751 5031.863)" fill="#ffd05b"/>
    <path id="Path_802" data-name="Path 802" d="M231.62,498.674s-.779,22.526-1.24,23.218,0-23.289,0-23.289Z" transform="translate(9409.076 4924.278)" opacity="0.1"/>
    <path id="Path_803" data-name="Path 803" d="M283.664,257.607h1.845s7.84,10.607,6.917,11.3,0,2.536,0,2.536l1.845,3.459s2.306,2.075,1.614,2.536a8.427,8.427,0,0,0-1.614,2.306s-4.612-.692-6,2.075l-2.991-3.775Z" transform="translate(9366.054 5118.121)" fill="#8a8a8f"/>
    <rect id="Rectangle_585" data-name="Rectangle 585" width="6.848" height="12.762" transform="translate(9644.039 5381.753) rotate(-22.438)" fill="#019657" stroke="#00673b" stroke-width="0.5"/>
    <ellipse id="Ellipse_75" data-name="Ellipse 75" cx="1.37" cy="1.258" rx="1.37" ry="1.258" transform="translate(9647.401 5384.254) rotate(-22.438)" fill="#00673b"/>
    <path id="Path_804" data-name="Path 804" d="M177.384,311.131s-16.6,13.835-19.369,9.454,3-8.07,3-8.07a20.31,20.31,0,0,0,10.837-3.459l5.765-2.536s5.263-7.513,7.056-4.652S181.609,309.707,177.384,311.131Z" transform="translate(9467.722 5083.043)" fill="#ffd05b"/>
    <path id="Path_805" data-name="Path 805" d="M131.566,289.426l-2.536.922v6.917l-.922,1.383s.231,2.767.922,3.459,2.075.461,1.614,2.075a8.74,8.74,0,0,0-.231,3.228s4.15,5.3,4.381,4.612,3.459-9.223,3.92-9.223-4.612-13.374-4.612-13.374Z" transform="translate(9491.173 5092.528)" fill="#8a8a8f"/>
    <path id="Path_806" data-name="Path 806" d="M280.6,451.473s2.384-2.306,1.192-2.421-5.342-2.421-6.034-1.268S280.6,451.473,280.6,451.473Z" transform="translate(9372.46 4965.413)" fill="#c4495e"/>
    <path id="Path_807" data-name="Path 807" d="M505,219.53a30.851,30.851,0,0,0-22.5,0v-9.2a38.944,38.944,0,0,1,22.5,0Z" transform="translate(9206.122 5157.479)" fill="#019657" stroke="#00673b" stroke-miterlimit="10" stroke-width="0.5"/>
    <path id="Path_808" data-name="Path 808" d="M514.74,222.229a22.267,22.267,0,0,0-16.24,0v-6.637a28.108,28.108,0,0,1,16.24,0Z" transform="translate(9193.252 5152.879)" fill="none" stroke="#00673b" stroke-miterlimit="10" stroke-width="0.5"/>
    <path id="Path_809" data-name="Path 809" d="M514.7,269.388a30.851,30.851,0,0,0-22.047,4.5l-1.839-9.01a38.944,38.944,0,0,1,22.047-4.5Z" transform="translate(9199.437 5116.024)" fill="#019657" stroke="#00673b" stroke-miterlimit="10" stroke-width="0.5"/>
    <path id="Path_810" data-name="Path 810" d="M524.4,273.558a22.266,22.266,0,0,0-15.912,3.248l-1.327-6.5a28.108,28.108,0,0,1,15.912-3.248Z" transform="translate(9186.287 5110.617)" fill="none" stroke="#00673b" stroke-miterlimit="10" stroke-width="0.5"/>
    <path id="Path_811" data-name="Path 811" d="M510.16,332.966a30.851,30.851,0,0,0-22.447-1.562l.638-9.174a38.944,38.944,0,0,1,22.447,1.562Z" transform="translate(9201.929 5066.922)" fill="#019657" stroke="#00673b" stroke-miterlimit="10" stroke-width="0.5"/>
    <path id="Path_812" data-name="Path 812" d="M520.55,335.548a22.266,22.266,0,0,0-16.2-1.127l.461-6.621a28.108,28.108,0,0,1,16.2,1.127Z" transform="translate(9188.548 5062.225)" fill="none" stroke="#00673b" stroke-miterlimit="10" stroke-width="0.5"/>
    <path id="Path_813" data-name="Path 813" d="M364.09,263.987s-14.38-1.967-24.65,4.051" transform="translate(9321.19 5113.236)" fill="none" stroke="#1458ea" stroke-miterlimit="10" stroke-width="1"/>
    <path id="Path_814" data-name="Path 814" d="M287.788,224.459l.373.118-.584,1.839,1.877.448-.091.381-2.286-.546Z" transform="translate(9373.188 5154.793)" fill="#1458ea"/>
    <ellipse id="Ellipse_76" data-name="Ellipse 76" cx="3.326" cy="1.761" rx="3.326" ry="1.761" transform="translate(9695.859 5368.599)" fill="#00673b"/>
    <ellipse id="Ellipse_78" data-name="Ellipse 78" cx="3.326" cy="1.761" rx="3.326" ry="1.761" transform="matrix(0.98, -0.2, 0.2, 0.98, 9697.667, 5380.363)" fill="#00673b"/>
    <ellipse id="Ellipse_80" data-name="Ellipse 80" cx="1.761" cy="3.326" rx="1.761" ry="3.326" transform="translate(9697.148 5393.894) rotate(-86.019)" fill="#00673b"/>
    <path id="Path_4733" data-name="Path 4733" d="M7.609,0c4.2,0,6.677,3.1,5.5,7.337s-2.014,8.731-5.5,7.882S0,11.812,0,7.609A7.609,7.609,0,0,1,7.609,0Z" transform="translate(9628.273 5356.359)" fill="#ffd05b"/>
    <path id="Path_4731" data-name="Path 4731" d="M177.138,145.066a2.589,2.589,0,0,0,1.3-.306c1.159-.625.882-1.943,0-2.921-.243-.249-7.269-2.963-12.989,1.877-2.906,1.182-.618,11.305,1.274,12.4.963-.292.706-3.748,1.187-5.223s1.96,2.293,1.9,1.34a8.047,8.047,0,0,1,.738-4.118,7.75,7.75,0,0,1,3.108-2.285A8.687,8.687,0,0,1,177.138,145.066Z" transform="translate(9463.568 5214.103)" fill="#2f2e41"/>
  </g>
</svg>
