<svg xmlns="http://www.w3.org/2000/svg" xmlns:xlink="http://www.w3.org/1999/xlink" width="211.717" height="147" viewBox="0 0 211.717 147">
  <defs>
    <linearGradient id="linear-gradient" x1="0.5" x2="0.5" y2="1.401" gradientUnits="objectBoundingBox">
      <stop offset="0" stop-color="#1458ea"/>
      <stop offset="1" stop-color="#a8c4ff"/>
    </linearGradient>
  </defs>
  <g id="Increase_Your_Potential_earnings" data-name="Increase Your Potential earnings" transform="translate(-9845 -6637)">
    <ellipse id="Ellipse_104" data-name="Ellipse 104" cx="105.858" cy="4.325" rx="105.858" ry="4.325" transform="translate(9845 6775.35)" fill="#f2f2f2"/>
    <g id="Group_3141" data-name="Group 3141" transform="translate(9845 6637)">
      <path id="Path_897" data-name="Path 897" d="M1039.588,535.837a7.64,7.64,0,0,0,1.01-3.872c0-3.5-2.161-6.335-4.841-6.335s-4.838,2.837-4.838,6.335a7.638,7.638,0,0,0,1.01,3.872,7.929,7.929,0,0,0,0,7.743,7.923,7.923,0,0,0,0,7.74,7.929,7.929,0,0,0,0,7.743,7.638,7.638,0,0,0-1.01,3.872c0,3.5,2.161,6.335,4.838,6.335s4.841-2.837,4.841-6.335a7.639,7.639,0,0,0-1.01-3.872,7.927,7.927,0,0,0,0-7.743,7.921,7.921,0,0,0,0-7.74A7.927,7.927,0,0,0,1039.588,535.837Z" transform="translate(-1012.669 -425.961)" fill="#edf3ff"/>
      <path id="Path_898" data-name="Path 898" d="M976.771,240.341a23.3,23.3,0,0,1-1.8-2.652l12.717-2.087-13.754.1a23.225,23.225,0,0,1-.442-18.367l18.451,9.571L974.924,214.4a23.18,23.18,0,1,1,38.284,25.935,22.862,22.862,0,0,1,2.643,4.23l-16.505,8.58,17.6-5.906a23.193,23.193,0,0,1-3.739,21.766,23.18,23.18,0,1,1-36.431,0,23.181,23.181,0,0,1,0-28.664Z" transform="translate(-971.809 -202.811)" fill="#edf3ff"/>
      <path id="Path_899" data-name="Path 899" d="M1018.207,370.026a23.08,23.08,0,0,1-4.962,14.332,23.18,23.18,0,1,1-36.432,0C973.692,380.416,1018.207,367.427,1018.207,370.026Z" transform="translate(-971.836 -318.164)" fill="#dee8fd"/>
    </g>
    <g id="Group_3140" data-name="Group 3140" transform="translate(159 195)">
      <rect id="Rectangle_586" data-name="Rectangle 586" width="164.104" height="89.726" rx="4" transform="translate(9710.082 6467.829)" fill="#e7eefd" opacity="0.999"/>
      <path id="Path_901" data-name="Path 901" d="M347.1,213.9v2.281H183V213.9a4.016,4.016,0,0,1,4.018-4.016H343.086A4.016,4.016,0,0,1,347.1,213.9Z" transform="translate(9527.082 6257.95)" fill="#1458ea"/>
      <ellipse id="Ellipse_110" data-name="Ellipse 110" cx="1.181" cy="1.181" rx="1.181" ry="1.181" transform="translate(9713.133 6469.895)" fill="#ff0f0f"/>
      <ellipse id="Ellipse_111" data-name="Ellipse 111" cx="1.181" cy="1.181" rx="1.181" ry="1.181" transform="translate(9716.085 6469.895)" fill="#ffd563"/>
      <ellipse id="Ellipse_112" data-name="Ellipse 112" cx="1.181" cy="1.181" rx="1.181" ry="1.181" transform="translate(9719.037 6469.895)" fill="#33be1a"/>
    </g>
    <path id="Path_843" data-name="Path 843" d="M453.909,394.063v12.394l-101.987.056-.093-24.776c1.077,3.174,3.736,3.744,8.417-1.854,5.926-7.077,11.69-12.344,16.482-12.814,4.033-.4,7.075,3.778,12.878,3.6,4.885-.154,4.813-5.691,12-7.229a36.784,36.784,0,0,1,12.475,0c3.018.518,10.182,4.993,14.86,4.848s8.987-3.016,14.469-5.758,5.547-2.69,10.5-1.814Z" transform="translate(9547.924 6327.733)" fill="url(#linear-gradient)"/>
    <g id="Group_3010" data-name="Group 3010" transform="translate(9912.615 6689.885)">
      <line id="Line_155" data-name="Line 155" y1="30.705" transform="translate(0 13.331)" fill="none" stroke="#a8c4ff" stroke-miterlimit="10" stroke-width="1"/>
      <line id="Line_156" data-name="Line 156" y1="38.918" transform="translate(12.39 5.118)" fill="none" stroke="#a8c4ff" stroke-miterlimit="10" stroke-width="1"/>
      <line id="Line_157" data-name="Line 157" y1="42.825" transform="translate(36.639 1.211)" fill="none" stroke="#a8c4ff" stroke-miterlimit="10" stroke-width="1"/>
      <line id="Line_158" data-name="Line 158" y1="44.036" transform="translate(79.251 0)" fill="none" stroke="#a8c4ff" stroke-miterlimit="10" stroke-width="1"/>
      <line id="Line_159" data-name="Line 159" y1="42.689" transform="translate(49.56 1.347)" fill="none" stroke="#a8c4ff" stroke-miterlimit="10" stroke-width="1"/>
      <line id="Line_160" data-name="Line 160" y1="37.707" transform="translate(64.032 5.846)" fill="none" stroke="#a8c4ff" stroke-miterlimit="10" stroke-width="1"/>
      <line id="Line_161" data-name="Line 161" y1="35.15" transform="translate(24.464 8.887)" fill="none" stroke="#a8c4ff" stroke-miterlimit="10" stroke-width="1"/>
    </g>
    <circle id="Ellipse_97" data-name="Ellipse 97" cx="2.29" cy="2.29" r="2.29" transform="translate(9910.447 6700.297)" fill="#fff"/>
    <circle id="Ellipse_122" data-name="Ellipse 122" cx="1.522" cy="1.522" r="1.522" transform="translate(9911.207 6701.058)" fill="#1458ea"/>
    <circle id="Ellipse_98" data-name="Ellipse 98" cx="2.29" cy="2.29" r="2.29" transform="translate(9922.621 6692.688)" fill="#fff"/>
    <circle id="Ellipse_123" data-name="Ellipse 123" cx="1.522" cy="1.522" r="1.522" transform="translate(9923.382 6693.448)" fill="#1458ea"/>
    <circle id="Ellipse_99" data-name="Ellipse 99" cx="2.29" cy="2.29" r="2.29" transform="translate(9946.972 6688.883)" fill="#fff"/>
    <circle id="Ellipse_125" data-name="Ellipse 125" cx="1.522" cy="1.522" r="1.522" transform="translate(9947.732 6689.644)" fill="#1458ea"/>
    <circle id="Ellipse_100" data-name="Ellipse 100" cx="2.29" cy="2.29" r="2.29" transform="translate(9989.583 6687.361)" fill="#fff"/>
    <circle id="Ellipse_128" data-name="Ellipse 128" cx="1.522" cy="1.522" r="1.522" transform="translate(9990.345 6688.122)" fill="#1458ea"/>
    <circle id="Ellipse_101" data-name="Ellipse 101" cx="2.29" cy="2.29" r="2.29" transform="translate(9959.907 6688.883)" fill="#fff"/>
    <circle id="Ellipse_126" data-name="Ellipse 126" cx="1.522" cy="1.522" r="1.522" transform="translate(9960.669 6689.644)" fill="#1458ea"/>
    <circle id="Ellipse_102" data-name="Ellipse 102" cx="2.29" cy="2.29" r="2.29" transform="translate(9974.366 6694.21)" fill="#fff"/>
    <circle id="Ellipse_127" data-name="Ellipse 127" cx="1.522" cy="1.522" r="1.522" transform="translate(9975.125 6694.971)" fill="#1458ea"/>
    <circle id="Ellipse_103" data-name="Ellipse 103" cx="2.29" cy="2.29" r="2.29" transform="translate(9934.797 6696.492)" fill="#fff"/>
    <circle id="Ellipse_124" data-name="Ellipse 124" cx="1.522" cy="1.522" r="1.522" transform="translate(9935.558 6697.252)" fill="#1458ea"/>
    <g id="Group_3145" data-name="Group 3145">
      <path id="Path_861" data-name="Path 861" d="M861.032,421.43a4.264,4.264,0,0,1-.157-.741,7.958,7.958,0,0,0-.811-2.095.763.763,0,0,0-.266-.344.509.509,0,0,0-.638.2,1.134,1.134,0,0,0-.138.708c.019.272.06.583-.132.774a.673.673,0,0,1-.278.148,2.581,2.581,0,0,1-1.886-.27c-.583-.29-1.1-.7-1.676-1.005a8.919,8.919,0,0,0-.937-.424c-.332-.134-.791-.22-.976.084-.148.243,0,.554.171.787a6.2,6.2,0,0,0,1,1.089,18.526,18.526,0,0,0,3.839,2.167,19.75,19.75,0,0,1,4.078,2.772.886.886,0,0,0,.206-.5c.1-.525.533-1.588.095-2.043C862.045,422.229,861.3,422.2,861.032,421.43Z" transform="translate(9149.91 6283.147)" fill="#ffd05b"/>
      <path id="Path_862" data-name="Path 862" d="M992,765.247a5.306,5.306,0,0,0,3.878,1.087c.288-.035.618-.138.713-.412a.807.807,0,0,0-.054-.494,8.806,8.806,0,0,1-.5-1.606c-.072-.5-.054-1.1-.461-1.4-.589-.435-2.129-.412-2.513.261C992.972,762.831,992.4,765.579,992,765.247Z" transform="translate(9039.597 6010.051)" fill="#ffd05b"/>
      <path id="Path_863" data-name="Path 863" d="M1032.185,758.994a.393.393,0,0,0,.336.49,11.021,11.021,0,0,0,2.916.488l-.206-1.981a.307.307,0,0,0-.328-.334,6.321,6.321,0,0,0-2.309-.282C1031.982,757.6,1032.2,758.4,1032.185,758.994Z" transform="translate(9007.71 6013.874)" fill="#ffd05b"/>
      <path id="Path_864" data-name="Path 864" d="M999.3,359.84a3.5,3.5,0,0,1,.233,1.3,6.049,6.049,0,0,1-1.335,4.465c1.248-.373,2.651-.148,3.829-.7a15.355,15.355,0,0,0,1.516-.986c.91-.568,1.971-.844,2.918-1.351a3.187,3.187,0,0,0,1.878-2.432c-.412-.432-1.073-.494-1.613-.756a4.559,4.559,0,0,1-1.421-1.3,10.384,10.384,0,0,1-1.265-1.794,3.483,3.483,0,0,1-.412-2.121c-1.052.19-1.816,1.108-2.811,1.5-.387.152-.805.222-1.182.4-.538.247-1.627,1.087-1.648,1.746C997.992,358.524,999.022,359.206,999.3,359.84Z" transform="translate(9034.967 6333.962)" fill="#ffd05b"/>
      <path id="Path_865" data-name="Path 865" d="M1006.463,362.567a3.187,3.187,0,0,0,1.878-2.432c-.412-.432-1.073-.494-1.613-.756a4.559,4.559,0,0,1-1.421-1.3,10.384,10.384,0,0,1-1.265-1.794,3.483,3.483,0,0,1-.412-2.121c-1.052.19-1.816,1.108-2.811,1.5-.387.152-1.68,3.118-2.057,3.293C998.226,359.2,1005.516,363.074,1006.463,362.567Z" transform="translate(9034.967 6333.962)" fill="#f0b97d"/>
      <path id="Path_866" data-name="Path 866" d="M994.7,538.362c-.389,3.139-.659,6.4-1.172,9.525-.206,1.308.049,2.677-.311,3.954-.154.546-.412,1.059-.525,1.613a6.968,6.968,0,0,0,.206,2.552,35.686,35.686,0,0,1,.373,6.417,17.178,17.178,0,0,1-.233,3.456c-.276,1.378-.869,2.677-1.2,4.032a17.559,17.559,0,0,0-.241,5.466,1.592,1.592,0,0,0-1.19.175,3.3,3.3,0,0,1-1.147.439,2.68,2.68,0,0,1-1.553-.525c-.367-.216-.686-.412-1.05-.634a78.116,78.116,0,0,1-.7-9.3c0-1.808.142-3.621,0-5.425a42.746,42.746,0,0,1-.472-5.334c.039-.811.177-1.61.27-2.416a40.855,40.855,0,0,0,.08-7.725c-.179.045-.251.334-.185.5a2.585,2.585,0,0,0-.618.846,6.751,6.751,0,0,0-.443,2.4l-.266,5.04a6.569,6.569,0,0,1-.177,1.423c-.093.332-.232.645-.317.978-.3,1.207.183,2.451.338,3.684a13.722,13.722,0,0,1-.086,3.077l-.661,6.409a22.94,22.94,0,0,0,0,7c.031.142.062.286.1.43a2.962,2.962,0,0,1-.346.078,4.42,4.42,0,0,1-1.236,0c-.383-.039-.77-.1-1.149-.15a2.6,2.6,0,0,0-2.422.546c-.918-4.164-1.841-8.392-1.6-12.649.087-1.5.317-2.988.476-4.481a46.7,46.7,0,0,0,.222-6.959c-.206-5.037-1.236-10.02-1.407-15.059a19.271,19.271,0,0,0-.245-3.215,15.009,15.009,0,0,1-.684-3.425c.039-1.159.886-2.447,2.06-2.383,3.24.179,6.2-1.609,9.431-1.913a16.227,16.227,0,0,1,4.409-.087,4.532,4.532,0,0,1,3.468,2.443,6.541,6.541,0,0,1,.356,2.358A44.755,44.755,0,0,1,994.7,538.362Z" transform="translate(9052.993 6197.075)" fill="#068ecb"/>
      <path id="Path_867" data-name="Path 867" d="M971.571,774.707c-.535.329-.719,1-1.03,1.549-.682,1.188-2.02,1.8-3.12,2.613-.527.393-1.059.989-.892,1.625,1.9.529,3.975,1,5.81.27a6.951,6.951,0,0,1,2.238-.811,7.045,7.045,0,0,0,1.806.062.618.618,0,0,0,.358-.237.823.823,0,0,0,.095-.412,26.089,26.089,0,0,0-.014-2.918c-.058-.95.07-1.621-1.013-1.58C974.566,774.921,972.651,774.041,971.571,774.707Z" transform="translate(9059.846 6000.267)" fill="#c7c7c7"/>
      <path id="Path_868" data-name="Path 868" d="M1026.521,766.859a2.285,2.285,0,0,0-.7-.159,1.308,1.308,0,0,0-1.011.618,3.806,3.806,0,0,0-.458,1.137,2.271,2.271,0,0,0-.128.916c.081.589.6,1.03.739,1.61.249,1.048-.824,2.179-.333,3.143a2.227,2.227,0,0,0,1.773.9,3.846,3.846,0,0,0,3.046-.371,1.922,1.922,0,0,0,.7-1.493,8.85,8.85,0,0,0-.673-2.16c-.286-1.03.144-2.393-.311-3.334C1028.772,766.859,1027.351,767.124,1026.521,766.859Z" transform="translate(9014.017 6006.426)" fill="#c7c7c7"/>
      <path id="Path_6690" data-name="Path 6690" d="M5.353,0c2.956,0,2.626,2.751,4.46,5.919-1.6,3.513-3.087,5.308-4.661,5.1S2.906,8.229,2.74,7.282a4.955,4.955,0,0,1-.728-2.367C2.013,1.959,2.4,0,5.353,0Z" transform="translate(10029.139 6682.413)" fill="#ffd05b"/>
      <path id="Path_869" data-name="Path 869" d="M977.533,381.12a2.854,2.854,0,0,0-1.827-.138l-.488-.851c-.206-.375-.513-.8-.943-.783a.824.824,0,0,0-.681.575,2.717,2.717,0,0,0-.107.933.617.617,0,0,1-.188.538.655.655,0,0,1-.259.078,6.622,6.622,0,0,1-1.007.1,3.44,3.44,0,0,0-1.648.128,2.632,2.632,0,0,0-.952,1.339,8.289,8.289,0,0,1-1.339,2.014,5.039,5.039,0,0,0-1.522,2.189c-.072.377.27.657.542.929,1.081,1.073,2.589,1.732,3.39,3.03a2.744,2.744,0,0,0,.628.853c-.179.389.206.789.286,1.207a4.69,4.69,0,0,1,.023.824,7.338,7.338,0,0,0,.206,1.192,11.01,11.01,0,0,1,.146,1.932l.035,2.167a11.921,11.921,0,0,1-.175,2.791c-.278,1.236-.958,2.42-.9,3.691a1.362,1.362,0,0,1-.07.708c-.562,1.03-1.005,2.171-1.608,3.188a3.383,3.383,0,0,0-.412.8,1.573,1.573,0,0,0,.655,1.59,4.007,4.007,0,0,0,1.7.63c5.548,1.063,11.309-.216,16.552-2.317a1.1,1.1,0,0,0,.377-.206c.383-.373.082-1-.136-1.487-.824-1.81-.167-3.913-.284-5.89-.078-1.333-.511-2.677-.185-3.979a13.136,13.136,0,0,1,1.137-2.43,19.129,19.129,0,0,1,1.182-2.657,8.068,8.068,0,0,1,1.407-1.483l3.347-2.982a8.487,8.487,0,0,1-.669-2.439c-.181-.7-.542-1.351-.758-2.043a8.425,8.425,0,0,0-.964-2.848c-.245-.315-.564-.56-.838-.851-.313-.334-.56-.723-.88-1.05a5.731,5.731,0,0,0-3.635-1.376,12.768,12.768,0,0,1-3.9-.661c-.6-.257-1.236-.647-1.854-.453a1.806,1.806,0,0,0-1.005,1.108,5.322,5.322,0,0,1-.667,1.386A4.25,4.25,0,0,1,977.533,381.12Z" transform="translate(9059.796 6315.417)" fill="#80b790"/>
      <path id="Path_870" data-name="Path 870" d="M903.195,429a2.871,2.871,0,0,1-.75.824,2.567,2.567,0,0,1-2.092-.035,35.628,35.628,0,0,1-5.625-2.1.445.445,0,0,0-.3-.072.411.411,0,0,0-.206.148,8.731,8.731,0,0,0-.772.991,2.266,2.266,0,0,0-.449,1.11,1.73,1.73,0,0,0,.6,1.3,5.132,5.132,0,0,0,1.236.781q3.417,1.705,6.879,3.322a1.217,1.217,0,0,0,.48.148c.469.01.768-.478,1.143-.758a4.469,4.469,0,0,1,1.314-.507,8.223,8.223,0,0,0,2.2-1.273l2.2-1.6c1.928-1.4,3.952-2.926,4.794-5.149l-2.677-.881a19.789,19.789,0,0,0-2.482-.824c-.618-.119-1.362.7-1.825,1.044a23.738,23.738,0,0,0-1.876,1.547A8.018,8.018,0,0,0,903.195,429Z" transform="translate(9118.208 6278.219)" fill="#80b790"/>
      <path id="Path_871" data-name="Path 871" d="M1042.29,526.422c-.756.3-1.613-.152-2.414-.018a3.327,3.327,0,0,0-1.059.439l-2.339,1.308c-.144.078-.3.27-.175.373a.251.251,0,0,0,.122.041,8.051,8.051,0,0,0,2.286-.507,5.307,5.307,0,0,1,1.03-.039.408.408,0,0,1,.167.025.346.346,0,0,1,.173.327c0,.132-.039.259-.043.391a1.44,1.44,0,0,0,.34.824,25.2,25.2,0,0,0,2.471,3.019,5.253,5.253,0,0,0,.589-.931l.77-1.442a12.2,12.2,0,0,0,1.744-4.712c-.577-.183-1.648-.791-2.243-.472S1042.976,526.2,1042.29,526.422Z" transform="translate(9004.455 6198.382)" fill="#ffd05b"/>
      <path id="Path_872" data-name="Path 872" d="M982.114,320.9a1.71,1.71,0,0,1,1.714-.427,2.016,2.016,0,0,1,1.375,1.542c.973-.815,1.142-.75,1.753,1.155.412.668.86,1.1,1.465,1.03s.335-.518.21-1.337-.607-.68-.564-1.963a2.77,2.77,0,0,0-.766-2.481c-.4-.54-.169-1.012-2.1-1.527s-1.881.02-2.742.362c-1.61.641-.7.59-2.334,1.165a10.675,10.675,0,0,0-1.308,1.34c-.206.313-1.174,1.421-1.122,1.8.078.636.173.763.8.953A3.69,3.69,0,0,0,982.114,320.9Z" transform="translate(9051.176 6365.03)" fill="#3f3d56"/>
      <path id="Path_873" data-name="Path 873" d="M1072.922,431a4.276,4.276,0,0,1,1.1,1.594,13.517,13.517,0,0,1,.465,1.779c.282,1.157.748,2.265,1,3.427a9.587,9.587,0,0,1-.618,5.907,10.2,10.2,0,0,0-.812,1.963c-.058.266-.084.542-.161.8a4.3,4.3,0,0,1-.519,1.03L1070,452.938a2.417,2.417,0,0,0-1.442-1.367,3.855,3.855,0,0,0-2.018-.122c.251-.4.363-.838.618-1.236a7.01,7.01,0,0,0,.385-.655,6.847,6.847,0,0,0,.3-.752l.443-1.25c.519-1.46,1.03-2.92,1.485-4.4a20.831,20.831,0,0,0,.651-2.636,1.81,1.81,0,0,0,.016-.69,2.156,2.156,0,0,0-.313-.63,18.825,18.825,0,0,1-1.275-2.6,2.724,2.724,0,0,1-.3-1.973,2.5,2.5,0,0,1,.663-.877A19.594,19.594,0,0,1,1072.922,431Z" transform="translate(8980.408 6272.988)" fill="#80b790"/>
      <path id="Path_874" data-name="Path 874" d="M1009.45,622.5l.247-.509a23.068,23.068,0,0,1,0-7l.661-6.409a14.142,14.142,0,0,0,.086-3.077c-.154-1.236-.64-2.471-.338-3.685.085-.334.225-.647.317-.978a6.6,6.6,0,0,0,.177-1.423l.266-5.039a6.74,6.74,0,0,1,.443-2.4v-.138l-.848-7.3L1008.22,622.5Z" transform="translate(9026.718 6151.069)" opacity="0.1"/>
    </g>
    <path id="Path_4734" data-name="Path 4734" d="M265.83,251.28v50.367H367.909" transform="translate(9633.924 6432.274)" fill="none" stroke="#a8c4ff" stroke-linecap="round" stroke-miterlimit="10" stroke-width="2"/>
  </g>
</svg>
