<svg xmlns="http://www.w3.org/2000/svg" xmlns:xlink="http://www.w3.org/1999/xlink" width="255.756" height="150" viewBox="0 0 255.756 150">
  <defs>
    <linearGradient id="linear-gradient" x1="-52.727" y1="1" x2="-52.727" gradientUnits="objectBoundingBox">
      <stop offset="0" stop-color="gray" stop-opacity="0.251"/>
      <stop offset="0.54" stop-color="gray" stop-opacity="0.122"/>
      <stop offset="1" stop-color="gray" stop-opacity="0.102"/>
    </linearGradient>
    <clipPath id="clip-path">
      <circle id="Ellipse_176" data-name="Ellipse 176" cx="9.375" cy="9.375" r="9.375"/>
    </clipPath>
    <clipPath id="clip-path-3">
      <ellipse id="Ellipse_177" data-name="Ellipse 177" cx="9.332" cy="9.332" rx="9.332" ry="9.332" transform="matrix(0.005, -1, 1, 0.005, 0, 18.664)" fill="#ff4141"/>
    </clipPath>
    <clipPath id="clip-path-4">
      <ellipse id="Ellipse_172" data-name="Ellipse 172" cx="9.332" cy="9.332" rx="9.332" ry="9.332" transform="matrix(0.161, -0.987, 0.987, 0.161, 0, 18.421)"/>
    </clipPath>
  </defs>
  <g id="Strong_Borrower_Screening" data-name="Strong Borrower Screening" transform="translate(-9717 -6939)">
    <ellipse id="Ellipse_107" data-name="Ellipse 107" cx="127.878" cy="4.817" rx="127.878" ry="4.817" transform="translate(9717 7079.365)" fill="#d1d1d1" opacity="0.3"/>
    <g id="Group_3005" data-name="Group 3005" transform="translate(9911.039 6939)">
      <path id="Path_897" data-name="Path 897" d="M1039.588,535.837a7.64,7.64,0,0,0,1.01-3.872c0-3.5-2.161-6.335-4.841-6.335s-4.838,2.837-4.838,6.335a7.638,7.638,0,0,0,1.01,3.872,7.929,7.929,0,0,0,0,7.743,7.923,7.923,0,0,0,0,7.74,7.929,7.929,0,0,0,0,7.743,7.638,7.638,0,0,0-1.01,3.872c0,3.5,2.161,6.335,4.838,6.335s4.841-2.837,4.841-6.335a7.639,7.639,0,0,0-1.01-3.872,7.927,7.927,0,0,0,0-7.743,7.921,7.921,0,0,0,0-7.74A7.927,7.927,0,0,0,1039.588,535.837Z" transform="translate(-1012.669 -425.961)" fill="#edf3ff"/>
      <path id="Path_898" data-name="Path 898" d="M976.771,240.341a23.3,23.3,0,0,1-1.8-2.652l12.717-2.087-13.754.1a23.225,23.225,0,0,1-.442-18.367l18.451,9.571L974.924,214.4a23.18,23.18,0,1,1,38.284,25.935,22.862,22.862,0,0,1,2.643,4.23l-16.505,8.58,17.6-5.906a23.193,23.193,0,0,1-3.739,21.766,23.18,23.18,0,1,1-36.431,0,23.181,23.181,0,0,1,0-28.664Z" transform="translate(-971.809 -202.811)" fill="#edf3ff"/>
      <path id="Path_899" data-name="Path 899" d="M1018.207,370.026a23.08,23.08,0,0,1-4.962,14.332,23.18,23.18,0,1,1-36.432,0C973.692,380.416,1018.207,367.427,1018.207,370.026Z" transform="translate(-971.836 -318.164)" fill="#dee8fd"/>
    </g>
    <rect id="Rectangle_586" data-name="Rectangle 586" width="164.104" height="89.726" rx="4" transform="translate(9769.082 6968.829)" fill="#e7eefd" opacity="0.999"/>
    <path id="Path_900" data-name="Path 900" d="M172,29.5h52.734v85.4H176.018A4.018,4.018,0,0,1,172,110.879Z" transform="translate(9597.182 6943.755)" fill="#a8c4ff"/>
    <path id="Path_901" data-name="Path 901" d="M347.1,213.9v2.281H183V213.9a4.016,4.016,0,0,1,4.018-4.016H343.086A4.016,4.016,0,0,1,347.1,213.9Z" transform="translate(9586.082 6758.95)" fill="#1458ea"/>
    <ellipse id="Ellipse_110" data-name="Ellipse 110" cx="1.181" cy="1.181" rx="1.181" ry="1.181" transform="translate(9772.133 6970.895)" fill="#ff0f0f"/>
    <ellipse id="Ellipse_111" data-name="Ellipse 111" cx="1.181" cy="1.181" rx="1.181" ry="1.181" transform="translate(9775.085 6970.895)" fill="#ffd563"/>
    <ellipse id="Ellipse_112" data-name="Ellipse 112" cx="1.181" cy="1.181" rx="1.181" ry="1.181" transform="translate(9778.037 6970.895)" fill="#33be1a"/>
    <rect id="Rectangle_587" data-name="Rectangle 587" width="68.278" height="2.164" rx="1.082" transform="translate(9855.464 6985.774)" fill="#a8c4ff"/>
    <rect id="Rectangle_588" data-name="Rectangle 588" width="14.364" height="4.919" rx="1.24" transform="translate(9908.396 6989.906)" fill="#1458ea"/>
    <rect id="Rectangle_589" data-name="Rectangle 589" width="68.278" height="2.164" rx="1.082" transform="translate(9855.464 7012.093)" fill="#a8c4ff"/>
    <rect id="Rectangle_590" data-name="Rectangle 590" width="14.364" height="4.919" rx="1.24" transform="translate(9908.396 7016.226)" fill="#1458ea"/>
    <rect id="Rectangle_591" data-name="Rectangle 591" width="68.278" height="2.164" rx="1.082" transform="translate(9855.464 7038.854)" fill="#a8c4ff"/>
    <rect id="Rectangle_592" data-name="Rectangle 592" width="14.364" height="4.919" rx="1.24" transform="translate(9908.396 7042.986)" fill="#1458ea"/>
    <g id="Group_1531" data-name="Group 1531" transform="translate(9766.965 6986.048)">
      <path id="Path_902" data-name="Path 902" d="M347.5,429.38" transform="translate(-317.989 -417.604)" fill="none" stroke="#f2f2f2" stroke-miterlimit="10" stroke-width="2"/>
      <path id="Path_903" data-name="Path 903" d="M333.5,428.38" transform="translate(-308.935 -416.957)" fill="none" stroke="#f2f2f2" stroke-miterlimit="10" stroke-width="2"/>
      <path id="Path_938" data-name="Path 938" d="M337.145,660.43h0l-.155.085Z" transform="translate(-311.192 -567.017)" fill="url(#linear-gradient)"/>
      <path id="Path_939" data-name="Path 939" d="M274.72,555.338c-1.364,3.929.23,10.307.968,13.151a39.574,39.574,0,0,1,.968,6.261,13.2,13.2,0,0,0,5.01-.113l-1.194-5.862c.852-3.473,0-12.752,0-12.752a22.3,22.3,0,0,0,2.12-9.052c.166-5.378,1.491-7.116,1.534-7.173h0c2.731,1.413,6.2,16.681,6.2,16.681-.286,3.7.057,9.391,1.194,12.466a15.46,15.46,0,0,1,.855,6.091,1.876,1.876,0,0,0,1.548.3,10.608,10.608,0,0,0,3.576-1.664s-.625-16.607-1.081-17.246,0-4.212,0-4.212l-.742-5.809s.113-9.847-.968-11.554a11.779,11.779,0,0,1-1.191-4.749v-.166l-1.646-1.975s-15.939-1.194-17.136,0a3.434,3.434,0,0,0-.583,1.8,40.779,40.779,0,0,0,.049,6.794s.477,3.13,1.162,6.318a13.875,13.875,0,0,1,0,5.808,17.367,17.367,0,0,1-.647,6.657Z" transform="translate(-270.471 -481.008)" fill="#ffcc61"/>
      <path id="Path_940" data-name="Path 940" d="M278.206,664.189c.707.94,4.9.541,5.607.248.435-.177.4-1,.286-1.838-.074-.537-.184-1.085-.23-1.484a13.453,13.453,0,0,1,.353-3.1s-.94,1-1.166,0a1.088,1.088,0,0,0-.813-.77,2.119,2.119,0,0,0-1.477.092c-.742.318-1.975,1-1.767,1.929.311,1.307-.8,3.18-.8,3.18a1.413,1.413,0,0,0,0,1.767Z" transform="translate(-272.976 -564.897)" fill="#d1d1d1"/>
      <path id="Path_941" data-name="Path 941" d="M278.219,674.16c.707.94,4.9.541,5.607.247.434-.177.4-1,.286-1.837a4.81,4.81,0,0,1-2.473.265,7.5,7.5,0,0,0-.894-.028,20.358,20.358,0,0,1-2.717-.053A1.357,1.357,0,0,0,278.219,674.16Z" transform="translate(-272.989 -574.868)" opacity="0.1"/>
      <path id="Path_942" data-name="Path 942" d="M308.754,577.116c-.286,3.7.057,9.392,1.194,12.466a15.464,15.464,0,0,1,.855,6.091,1.877,1.877,0,0,0,1.548.3c-.353-2.4-1.805-12.745-2.745-20.917a34.235,34.235,0,0,0-6.06-15.713l-1,1.1C305.281,561.859,308.754,577.116,308.754,577.116Z" transform="translate(-288.921 -501.645)" opacity="0.1"/>
      <path id="Path_943" data-name="Path 943" d="M283.62,427.826l.707,3.417,3.406,5.72,4.2-1.791s5.706-5.978,2.12-6.833a3.1,3.1,0,0,1-1.191-.53,2.474,2.474,0,0,1-.929-2.06,6.3,6.3,0,0,1,.583-2.449l-7.346-2.3a11.959,11.959,0,0,1,.526,2.975,3.927,3.927,0,0,1-1.3,3.456A2.215,2.215,0,0,1,283.62,427.826Z" transform="translate(-276.679 -412.185)" fill="#ffd05b"/>
      <path id="Path_944" data-name="Path 944" d="M288,421a11.967,11.967,0,0,1,.526,2.975,4.693,4.693,0,0,0,.427.452,5.777,5.777,0,0,0,3.993,1.608,5.7,5.7,0,0,0,1.795-.286,6.305,6.305,0,0,1,.583-2.449Z" transform="translate(-279.512 -412.185)" opacity="0.1"/>
      <path id="Path_945" data-name="Path 945" d="M286.125,408.06c0,3.209,2.29,5.14,5.227,5.457s3.524-4.834,3.456-5.871,1-3.493-3.463-5.747a5.777,5.777,0,0,0-4.111,1.693C286.144,404.683,286.118,406.519,286.125,408.06Z" transform="translate(-277.91 -399.833)" fill="#ffd05b"/>
      <path id="Path_946" data-name="Path 946" d="M283.62,439.589l.707,3.417,3.406,5.72,4.2-1.791s5.706-5.978,2.12-6.833a3.1,3.1,0,0,1-1.191-.53c.647,1.767-2.025,5.484-2.025,5.484-.311.456-1.025.17-1.025.17-1.724-.261-4.894-5.212-5.409-6.035A2.216,2.216,0,0,1,283.62,439.589Z" transform="translate(-276.679 -423.948)" opacity="0.1"/>
      <path id="Path_947" data-name="Path 947" d="M274.31,529.731c1.011.23,6.6,1.47,8.724,1.159,2.336-.353,6.872-.569,6.872-.569a13.4,13.4,0,0,0,3.777-.251V529.9l-1.647-1.975s-15.939-1.194-17.136,0A3.436,3.436,0,0,0,274.31,529.731Z" transform="translate(-270.659 -480.989)" opacity="0.1"/>
      <path id="Path_948" data-name="Path 948" d="M278.118,445.335s3-4.159,1.869-5.78l5.074,2.081s3.053-.371,4.155,4.187a7.962,7.962,0,0,1,.191,2.314,6.879,6.879,0,0,0,.834,3.459c1.254,2.505.968,8.254-1.594,8.833a7.65,7.65,0,0,1-3.473.283s.353,10.416,1.823,11.614-3.774.911-3.774.911-4.537.226-6.872.569-8.879-1.2-8.879-1.2.968-4.381,1.307-7.173,1.141-8.727,1.141-8.727l-5.809-7.865s-1.025-4.752,2.562-6.858a40.4,40.4,0,0,1,4.947-2.625s3.6,5.869,5.484,6.155C277.093,445.508,277.807,445.794,278.118,445.335Z" transform="translate(-263.977 -424.057)" fill="#c4495e"/>
      <path id="Path_949" data-name="Path 949" d="M319.41,460.94a8.532,8.532,0,0,1-.286,2.622c-.343.742-1.593,4.837-1.593,4.837h2.844s-1.537-1.65-1.413-2.449S319.41,460.94,319.41,460.94Z" transform="translate(-298.608 -438.013)" opacity="0.1"/>
      <path id="Path_950" data-name="Path 950" d="M297.609,486.452s6.286-1.537,6.872-2.848,2.2-4.24,2.2-4.24l-.664-.894-3.056,2.4s-3.643,2.9-5.353,3.18S297.609,486.452,297.609,486.452Z" transform="translate(-285.234 -449.349)" fill="#ffd05b"/>
      <path id="Path_951" data-name="Path 951" d="M297.609,486.452s6.286-1.537,6.872-2.848,2.2-4.24,2.2-4.24l-.664-.894-3.056,2.4s-3.643,2.9-5.353,3.18S297.609,486.452,297.609,486.452Z" transform="translate(-285.234 -449.349)" opacity="0.05"/>
      <path id="Path_952" data-name="Path 952" d="M283.62,480.058v3.41h.548a15.943,15.943,0,0,1,7.739,2l1.028.568.276.155,1.767-3.975-1.65-1.48h-.085a9.845,9.845,0,0,1-2.89-.064,4.683,4.683,0,0,0-3.65-.466c-1.018.262-1.89,1.413-2.88,1.06Z" transform="translate(-276.679 -450.353)" fill="#ffd05b"/>
      <path id="Path_953" data-name="Path 953" d="M265.988,455.494l-1.138,1.279v3.116s.968,9.791,4.042,10.872,8.561-.625,8.561-.625,1.413-3.756.753-3.985-5.858-1.6-5.858-1.6.071-5.741-1.06-7.448c0,0,.742-5.353-1.82-5.466S265.988,455.494,265.988,455.494Z" transform="translate(-264.541 -431.994)" opacity="0.1"/>
      <path id="Path_954" data-name="Path 954" d="M265.5,455.494l-1.141,1.279v3.116s.968,9.791,4.042,10.872,8.551-.625,8.551-.625,1.413-3.756.756-3.985-5.862-1.6-5.862-1.6.074-5.741-1.06-7.448c0,0,.738-5.353-1.823-5.466S265.5,455.494,265.5,455.494Z" transform="translate(-264.224 -431.994)" fill="#c4495e"/>
      <path id="Path_956" data-name="Path 956" d="M289.557,398.206a1.025,1.025,0,0,0,.82-.707,7.411,7.411,0,0,0,.53-2.074c.088-1.1-.151-2.159-1.187-2.147s-7.176.463-9.986,3.008c-.545.749-.293.951-.345,1.062-.131.219-.42.079-.382,1.028s1.959,7.8,1.793,9.1c.392.177,1.054-.875.747-4a2.487,2.487,0,0,1,.223-1.461.7.7,0,0,1,.929-.32c.351.2-.054,1.048.416,1.2.426.084.743-1.993,1.076-3.4a3.212,3.212,0,0,1,3.084-2.123C288.333,397.4,289.128,398.257,289.557,398.206Z" transform="translate(-272.313 -393.277)" fill="#353634"/>
      <path id="Path_957" data-name="Path 957" d="M305.259,460.54l-1.767,7.324S302.072,467.854,305.259,460.54Z" transform="translate(-289.326 -437.754)" opacity="0.1"/>
      <path id="Path_958" data-name="Path 958" d="M291.83,457.08s2.335,3.823,1.413,7.773l-.435.032S293.6,463.058,291.83,457.08Z" transform="translate(-281.988 -435.516)" opacity="0.1"/>
      <path id="Path_959" data-name="Path 959" d="M282.014,517.929s-2.865-.947-3.074,1.251C278.94,519.18,279.481,517.671,282.014,517.929Z" transform="translate(-273.653 -474.735)" opacity="0.1"/>
      <path id="Path_960" data-name="Path 960" d="M310.256,482.53s.569,3.986-.456,5.579a12.442,12.442,0,0,0,5.017.682l.353-6.261Z" transform="translate(-293.609 -451.974)" opacity="0.1"/>
      <path id="Path_961" data-name="Path 961" d="M310,487.35l.276.156,1.767-3.975-1.65-1.48H310.3C310.325,482.241,310.784,485.665,310,487.35Z" transform="translate(-293.739 -451.664)" opacity="0.1"/>
      <path id="Path_962" data-name="Path 962" d="M310.256,482.05s.569,3.985-.456,5.579a12.52,12.52,0,0,0,5.017.682l1.993-6.261Z" transform="translate(-293.609 -451.664)" fill="#c4495e"/>
      <path id="Path_963" data-name="Path 963" d="M324.982,661.5a1.286,1.286,0,0,0,1.106,1.127A40.212,40.212,0,0,1,332.3,663.9c1.2.569,5.922.17,6.148-.4a.894.894,0,0,0-.081-.682,1.812,1.812,0,0,0-.763-.823,2.3,2.3,0,0,0-.353-.152c-.89-.3-2.569-.926-3.024-1.586a19.233,19.233,0,0,1-2.692-2.827,1.367,1.367,0,0,0-1.1-.682c-.5-.021-1.06.23-1.279,1.321,0,0-2.731,1.558-3.47.191a7.542,7.542,0,0,1-.569,2.675h0A.766.766,0,0,0,324.982,661.5Z" transform="translate(-303.421 -564.635)" fill="#d1d1d1"/>
      <path id="Path_964" data-name="Path 964" d="M324.986,669.175a1.286,1.286,0,0,0,1.106,1.127,40.2,40.2,0,0,1,6.208,1.268c1.2.569,5.922.17,6.148-.4a.894.894,0,0,0-.081-.682,1.813,1.813,0,0,0-.763-.823c-.77.512-2.473,1.014-6.24.424a27.653,27.653,0,0,1-6.233-1.48h0A.766.766,0,0,0,324.986,669.175Z" transform="translate(-303.425 -572.307)" opacity="0.1"/>
      <path id="Path_969" data-name="Path 969" d="M339.609,660.15s-.594,1.06-2.749.124" transform="translate(-311.108 -566.836)" opacity="0.1"/>
      <path id="Path_970" data-name="Path 970" d="M285.361,660.86a3.275,3.275,0,0,1-4.2.707" transform="translate(-275.088 -567.295)" opacity="0.1"/>
      <path id="Path_971" data-name="Path 971" d="M277.74,587.58s1.311.82,1.357,1.29-.678-.353-.678-.353Z" transform="translate(-272.877 -519.907)" opacity="0.1"/>
      <path id="Path_972" data-name="Path 972" d="M276.27,605.39a2.736,2.736,0,0,0,1.618.633c.982.042.9,1.321.258.94a16.111,16.111,0,0,1-1.876-1.572Z" transform="translate(-271.926 -531.425)" opacity="0.1"/>
      <path id="Path_973" data-name="Path 973" d="M275.56,607.71s.633,3.1,1.145,2.5" transform="translate(-271.467 -532.925)" opacity="0.1"/>
    </g>
    <g id="Group_2999" data-name="Group 2999" transform="translate(9831 6980.25)">
      <circle id="Ellipse_165" data-name="Ellipse 165" cx="9.375" cy="9.375" r="9.375" transform="translate(0 0)" fill="#cedbf9"/>
      <g id="Group_1947" data-name="Group 1947" transform="translate(0 0)">
        <g id="Group_1946" data-name="Group 1946" clip-path="url(#clip-path)">
          <g id="Group_1945" data-name="Group 1945" transform="translate(2.09 4.6)">
            <path id="Path_4676" data-name="Path 4676" d="M363.512,373.248a3.9,3.9,0,0,0-.03,1.65,34.877,34.877,0,0,0,3.316,1.407,5.1,5.1,0,0,1,1.63.881,2.513,2.513,0,0,1,.539,1.7H354.1a2.513,2.513,0,0,1,.539-1.7,5.081,5.081,0,0,1,1.63-.881,34.343,34.343,0,0,0,3.316-1.407,3.875,3.875,0,0,0-.03-1.65C361.92,372,361.13,371.99,363.512,373.248Z" transform="translate(-354.1 -364.532)" fill="#ffd05b" fill-rule="evenodd"/>
            <path id="Path_4677" data-name="Path 4677" d="M395,373.608s-.809,1.15-1.441,1.218c-.948.1-1.171-.213-1.8-.832a6.976,6.976,0,0,1-1.36-1.683,9.721,9.721,0,0,0-.179-1.1c-.07-.159,1.758-.839,1.758-.839l1.848-.034.431,1.235a4.129,4.129,0,0,0-.03,1.65Z" transform="translate(-384.844 -362.857)" fill="#f0b97d" fill-rule="evenodd"/>
            <path id="Path_4678" data-name="Path 4678" d="M376.816,348.322a.953.953,0,0,1-.966-.3c-.4-.475-1.142-2.685.582-2.377Z" transform="translate(-372.182 -341.809)" fill="#ffd05b" fill-rule="evenodd"/>
            <path id="Path_4679" data-name="Path 4679" d="M423.39,348.322a.955.955,0,0,0,.967-.3c.4-.475,1.142-2.685-.582-2.377Z" transform="translate(-413.082 -341.809)" fill="#ffd05b" fill-rule="evenodd"/>
            <path id="Path_4680" data-name="Path 4680" d="M385.7,329.135c-1.694,1.824-2.2,1.824-3.9,0a5.658,5.658,0,0,1-1.4-3.969c-.07-1.348-.442-3.2.3-4.086,1.16-1.386,4.939-1.386,6.1,0,.739.884.366,2.739.3,4.086A5.659,5.659,0,0,1,385.7,329.135Z" transform="translate(-376.356 -320.04)" fill="#ffd05b" fill-rule="evenodd"/>
          </g>
          <path id="Path_4681" data-name="Path 4681" d="M378.3,316.274s-.326-1.421-.57-1.477a7.461,7.461,0,0,1-.165-2.475,3.172,3.172,0,0,1,1.135-2.041,4.542,4.542,0,0,1,5.75.263,1.288,1.288,0,0,1,.5,1.134l0,.281a1,1,0,0,1,.469.97,15.949,15.949,0,0,1-.164,1.864,2.092,2.092,0,0,0-.479,1.095l-.025.42-.245-.036a23.415,23.415,0,0,0,.161-2.478c-.052-.521.01-.833-.667-.875,0,0-.5,1.053-3.46.573,0,0-1.459-.406-1.918.271a3.194,3.194,0,0,0-.216,1.95l.082.567Z" transform="translate(-371.943 -306.365)" fill="#7d372e" fill-rule="evenodd"/>
          <path id="Path_4682" data-name="Path 4682" d="M364.267,392.33c.918.4,2.316.893,2.541.983a5.079,5.079,0,0,1,1.63.894,2.572,2.572,0,0,1,.539,1.724H354.11a2.569,2.569,0,0,1,.539-1.724,5.062,5.062,0,0,1,1.63-.894c.22-.089,1.571-.568,2.487-.962a6.7,6.7,0,0,0,5.5-.021Z" transform="translate(-352.018 -376.976)" fill="#ef8243" fill-rule="evenodd"/>
        </g>
      </g>
    </g>
    <g id="Group_3001" data-name="Group 3001" transform="translate(9831 7007.25)">
      <circle id="Ellipse_166" data-name="Ellipse 166" cx="9.375" cy="9.375" r="9.375" fill="#cedbf9"/>
      <g id="Group_1942" data-name="Group 1942" transform="translate(0 0)">
        <g id="Group_1941" data-name="Group 1941" clip-path="url(#clip-path)">
          <g id="Group_1939" data-name="Group 1939" transform="translate(2.194 4.55)">
            <path id="Path_4660" data-name="Path 4660" d="M57.971,372.349a3.84,3.84,0,0,0-.03,1.632,33.942,33.942,0,0,0,3.28,1.391,5.033,5.033,0,0,1,1.613.872,2.492,2.492,0,0,1,.533,1.681H48.66a2.478,2.478,0,0,1,.533-1.681,5.016,5.016,0,0,1,1.613-.872,34.31,34.31,0,0,0,3.28-1.391,3.84,3.84,0,0,0-.03-1.632C56.4,371.114,55.615,371.1,57.971,372.349Z" transform="translate(-48.66 -363.726)" fill="#fec49c" fill-rule="evenodd"/>
            <path id="Path_4661" data-name="Path 4661" d="M89.124,372.7s-.8,1.137-1.425,1.206c-.937.1-1.159-.21-1.778-.823a6.9,6.9,0,0,1-1.345-1.665,9.47,9.47,0,0,0-.177-1.087c-.068-.158,1.739-.83,1.739-.83l1.828-.034.427,1.221a4.07,4.07,0,0,0-.03,1.632Z" transform="translate(-79.081 -362.067)" fill="#d2a588" fill-rule="evenodd"/>
            <path id="Path_4662" data-name="Path 4662" d="M70.769,346.956a.941.941,0,0,1-.955-.3c-.4-.469-1.129-2.655.576-2.352Z" transform="translate(-66.24 -340.621)" fill="#ffd05b" fill-rule="evenodd"/>
            <path id="Path_4663" data-name="Path 4663" d="M117.2,346.956a.941.941,0,0,0,.955-.3c.4-.469,1.129-2.655-.576-2.352Z" transform="translate(-107.004 -340.621)" fill="#ffd05b" fill-rule="evenodd"/>
            <path id="Path_4664" data-name="Path 4664" d="M79.92,328.7c-1.677,1.8-2.179,1.8-3.856,0a5.6,5.6,0,0,1-1.382-3.926c-.068-1.334-.437-3.169.295-4.043,1.148-1.372,4.885-1.372,6.032,0,.73.873.363,2.709.295,4.043A5.6,5.6,0,0,1,79.92,328.7Z" transform="translate(-70.68 -319.705)" fill="#ffd05b" fill-rule="evenodd"/>
          </g>
          <g id="Group_1940" data-name="Group 1940" transform="translate(2.196 14.029)">
            <path id="Path_4665" data-name="Path 4665" d="M58.149,389.443c.713.347,2.8,1.156,3.082,1.27a5.033,5.033,0,0,1,1.613.872,2.492,2.492,0,0,1,.533,1.681H48.67a2.478,2.478,0,0,1,.533-1.681,5.016,5.016,0,0,1,1.613-.872c.284-.113,2.376-.927,3.088-1.273l2.123.458Z" transform="translate(-48.67 -388.545)" fill="#f7f7f7" fill-rule="evenodd"/>
            <path id="Path_4666" data-name="Path 4666" d="M84.116,383.427c-.162-.021-.187.55-.266.9a6.681,6.681,0,0,0,1.36,2.071s.073.082.132.057a1.975,1.975,0,0,0,.109-.293c.015-.043.028-.086.043-.128.042-.125.077-.235.085-.256.15-.393.356-.928.375-1l-.016,0C85.439,384.627,84.127,383.867,84.116,383.427Z" transform="translate(-78.617 -383.426)" fill="#ebebeb" fill-rule="evenodd"/>
            <path id="Path_4667" data-name="Path 4667" d="M100.087,383.427c.162-.021.187.55.266.9a6.681,6.681,0,0,1-1.36,2.071s-.073.082-.132.057c-.022-.009-.217-.626-.237-.677-.15-.393-.356-.928-.375-1C98.733,384.645,100.075,383.872,100.087,383.427Z" transform="translate(-90.874 -383.426)" fill="#ebebeb" fill-rule="evenodd"/>
            <rect id="Rectangle_770" data-name="Rectangle 770" width="0.976" height="2.175" transform="translate(6.849 2.546)" fill="#313536"/>
            <path id="Path_4668" data-name="Path 4668" d="M94.465,393.885a1.011,1.011,0,0,1,.986.013s.091.046.025-.241-.3-1.15-.509-1.157-.527.916-.567,1.187S94.465,393.885,94.465,393.885Z" transform="translate(-87.59 -391.15)" fill="#23272a" fill-rule="evenodd"/>
          </g>
          <path id="Path_4669" data-name="Path 4669" d="M71.524,312.748s-.641-.372-.021-1.964a3.442,3.442,0,0,1,4.445-1.529,6.813,6.813,0,0,1,2.368,1.343,2.513,2.513,0,0,1,.3.866s.5.32.521.732-.082.629-.207.68l-.009,1.412a2.119,2.119,0,0,0-.442,1.238c-.055.818-.134,1.453-.134,1.453l-.189.812-.116,1.528a1.871,1.871,0,0,1-.5,1.361,3.575,3.575,0,0,1-1.882,1.247,3.024,3.024,0,0,1-2.643-1.114,1.487,1.487,0,0,1-.614-1.287l-.119-1.412-.3-1.145-.176-1.974s-.057-.6-.312-.7l.033-1.544Zm3.7,5.3c-.605,0-1.1.129-1.1.289s.492.289,1.1.289,1.1-.129,1.1-.289-.492-.289-1.1-.289Zm-2.995-3.442s.289,2.248.391,2.71.546,1.092.855.949c.138-.065.335-.2.536-.323a.842.842,0,0,1,.785-.134,1.588,1.588,0,0,0,.479.046c.388-.037.614-.106.775-.092.51.045.436.477.942.494.659.021.887-1.083.887-1.083l.361-2.608a1.912,1.912,0,0,0,.394-1.217,1.506,1.506,0,0,0-.25-.69.56.56,0,0,0-.69-.186c-.494.829-4.247.063-4.69-.1s-.958-.082-1.144.8A1.612,1.612,0,0,0,72.224,314.608Z" transform="translate(-65.68 -306.011)" fill="#604530" fill-rule="evenodd"/>
        </g>
      </g>
    </g>
    <g id="Group_3004" data-name="Group 3004" transform="translate(9831 7033.5)">
      <ellipse id="Ellipse_167" data-name="Ellipse 167" cx="9.332" cy="9.332" rx="9.332" ry="9.332" transform="matrix(0.005, -1, 1, 0.005, 0, 18.664)" fill="#cedbf9"/>
      <g id="Mask_Group_45" data-name="Mask Group 45" transform="translate(0)" clip-path="url(#clip-path-3)">
        <g id="Group_1934" data-name="Group 1934" transform="translate(-1.338 -1.338)">
          <g id="Group_1933" data-name="Group 1933" transform="translate(0 0)" clip-path="url(#clip-path-4)">
            <path id="Path_4639" data-name="Path 4639" d="M229.81,194.77l.912,4.359,4.143-.341,1.115-3.428Z" transform="translate(-222.157 -182.821)" fill="#725b50" fill-rule="evenodd"/>
            <path id="Path_4640" data-name="Path 4640" d="M215.716,203.817l.173.774c.176.788.163.837-.493,1.176-1.068.552-2.913.865-3.548,1.888a2.957,2.957,0,0,0-.249,1.581h11.56a2.96,2.96,0,0,0-.249-1.581c-.635-1.023-2.48-1.337-3.548-1.888-.657-.339-.669-.389-.493-1.176l.173-.774C216.845,202.658,217.912,202.658,215.716,203.817Z" transform="translate(-206.643 -189.788)" fill="#ffd05b" fill-rule="evenodd"/>
            <path id="Path_4641" data-name="Path 4641" d="M242.871,203.413a2.05,2.05,0,0,1-1.207.582A4.347,4.347,0,0,1,239,201.859l-.218-.917,2.227-.952,1.556.912-.366.4-.264,1.263s-.1.339.372.575S242.871,203.413,242.871,203.413Z" transform="translate(-229.799 -187.268)" fill="#f0b97d" fill-rule="evenodd"/>
            <path id="Path_4642" data-name="Path 4642" d="M225.644,179.325c-.062,0-.509-.555-.81-.145s.194,2.519.888,2.477A3.571,3.571,0,0,0,225.644,179.325Z" transform="translate(-217.841 -169.41)" fill="#ffd05b" fill-rule="evenodd"/>
            <path id="Path_4643" data-name="Path 4643" d="M269.35,179.325c.062,0,.509-.555.81-.145s-.194,2.519-.888,2.477A3.571,3.571,0,0,1,269.35,179.325Z" transform="translate(-255.641 -169.41)" fill="#fec49c" fill-rule="evenodd"/>
            <path id="Path_4644" data-name="Path 4644" d="M231.543,163.261c1.481,1.6,2.3,1.6,3.782,0,1.162-1.26,1.026-2.6,1.09-4.241a5.1,5.1,0,0,0-.238-1.94c-.843-2.248-4.642-2.248-5.485,0a5.1,5.1,0,0,0-.238,1.94C230.516,160.661,230.38,162,231.543,163.261Z" transform="translate(-222.699 -149.276)" fill="#ffd05b" fill-rule="evenodd"/>
            <path id="Path_4645" data-name="Path 4645" d="M240.764,141.254a2.722,2.722,0,0,1,2.924.469,5.836,5.836,0,0,1,1.5,4.842c-.135,1.556.213,6.768.657,7.555h0c-.826-.471-1.943-.739-2.685-1.122l-.17-.09a9.554,9.554,0,0,0,.936-3.435l.151-.832s-4.189-2-4.53-5.094A4.924,4.924,0,0,1,240.764,141.254Z" transform="translate(-230.455 -137.03)" fill="#604530" fill-rule="evenodd"/>
            <path id="Path_4646" data-name="Path 4646" d="M214.044,218.925c-1.068.551-2.929.887-3.566,1.91a6.82,6.82,0,0,0-.369,2.394h11.948a6.825,6.825,0,0,0-.369-2.394c-.635-1.023-2.5-1.358-3.566-1.91-.293-.151-.495-.336-.6-.272-.158.093-.154.536-.262.888l-1.176.644-1.176-.644c-.108-.351-.1-.794-.262-.888C214.539,218.588,214.337,218.773,214.044,218.925Z" transform="translate(-205.374 -203.156)" fill="#80b790" fill-rule="evenodd"/>
            <path id="Path_4647" data-name="Path 4647" d="M217.524,142.356l-1.214,2.294a6.011,6.011,0,0,0-1.35,3.215l.01.157c-.161-.133-.484-.4-.72-.08-.3.41.194,2.519.888,2.477.12.607.546,5.337,1.768,7.787H212.27s1.848-2.818,1.472-9.357c-.187-3.241.052-6.951,3.746-6.5Z" transform="translate(-207.214 -138.132)" fill="#604530" fill-rule="evenodd"/>
            <rect id="Rectangle_769" data-name="Rectangle 769" width="0.649" height="3.038" transform="translate(10.397 17.034)" fill="#fdfcff"/>
            <path id="Path_4648" data-name="Path 4648" d="M238.421,212.43l-.261.622-.021,1.423.324-.9a1.381,1.381,0,0,0,1.211,1.321c.052.013.105.025.161.036,0,0,.415.074.455.367,0,0,.147-.247-.641-.689A3.385,3.385,0,0,1,238.421,212.43Z" transform="translate(-229.254 -197.866)" fill="#fdfcff" fill-rule="evenodd"/>
            <path id="Path_4649" data-name="Path 4649" d="M238.761,217.317s-.061.034-.087.391-.034.72-.034.72l.25-.689S238.872,217.253,238.761,217.317Z" transform="translate(-229.68 -202.024)" fill="#b6c4c4" fill-rule="evenodd"/>
            <path id="Path_4650" data-name="Path 4650" d="M252.05,212.43l.261.622.021,1.423-.324-.9a1.983,1.983,0,0,1-1.214,1.541,1.762,1.762,0,0,0-.293-.3,3.119,3.119,0,0,1,.321-.2A3.391,3.391,0,0,0,252.05,212.43Z" transform="translate(-239.783 -197.866)" fill="#fdfcff" fill-rule="evenodd"/>
            <path id="Path_4651" data-name="Path 4651" d="M260.809,217.317s.061.034.087.391.034.72.034.72l-.25-.689S260.7,217.253,260.809,217.317Z" transform="translate(-248.456 -202.024)" fill="#b6c4c4" fill-rule="evenodd"/>
            <ellipse id="Ellipse_170" data-name="Ellipse 170" cx="0.147" cy="0.147" rx="0.147" ry="0.147" transform="translate(10.57 17.477)" fill="#b6c4c4"/>
            <ellipse id="Ellipse_171" data-name="Ellipse 171" cx="0.147" cy="0.147" rx="0.147" ry="0.147" transform="translate(10.57 18.886)" fill="#b6c4c4"/>
          </g>
        </g>
      </g>
    </g>
  </g>
</svg>
